M48
; DRILL file {KiCad 9.0.3} date 2025-08-05T18:20:23-0600
; FORMAT={-:-/ absolute / inch / decimal}
; #@! TF.CreationDate,2025-08-05T18:20:23-06:00
; #@! TF.GenerationSoftware,Kicad,Pcbnew,9.0.3
; #@! TF.FileFunction,Plated,1,2,PTH
FMAT,2
INCH
; #@! TA.AperFunction,Plated,PTH,ViaDrill
T1C0.0118
; #@! TA.AperFunction,Plated,PTH,ComponentDrill
T2C0.0157
; #@! TA.AperFunction,Plated,PTH,ComponentDrill
T3C0.0197
; #@! TA.AperFunction,Plated,PTH,ComponentDrill
T4C0.0295
; #@! TA.AperFunction,Plated,PTH,ComponentDrill
T5C0.0394
; #@! TA.AperFunction,Plated,PTH,ComponentDrill
T6C0.0472
; #@! TA.AperFunction,Plated,PTH,ComponentDrill
T7C0.0591
; #@! TA.AperFunction,Plated,PTH,ComponentDrill
T8C0.0866
%
G90
G05
T1
X5.685Y-4.3465
X5.685Y-5.0157
X5.685Y-5.685
X5.685Y-6.3543
X5.9016Y-4.0866
X5.9016Y-4.7559
X5.9016Y-5.4252
X5.9016Y-6.0945
X6.1378Y-6.7657
X6.185Y-4.3465
X6.185Y-5.0157
X6.185Y-5.685
X6.185Y-6.3543
X6.3287Y-4.5866
X6.3287Y-5.2559
X6.3287Y-5.9252
X6.3287Y-6.5945
X6.3937Y-4.3465
X6.3937Y-5.0157
X6.3937Y-5.685
X6.3937Y-6.3543
X6.6102Y-4.0866
X6.6102Y-4.7559
X6.6102Y-5.4252
X6.6102Y-6.0945
X6.813Y-6.6791
X6.8937Y-4.3465
X6.8937Y-5.0157
X6.8937Y-5.685
X6.8937Y-6.3543
X6.998Y-4.5571
X6.998Y-5.2264
X6.998Y-5.8957
X6.998Y-6.565
X7.1024Y-4.1496
X7.1024Y-4.8189
X7.1024Y-5.4882
X7.1024Y-6.1575
X7.1024Y-6.8268
X7.3189Y-3.8898
X7.3189Y-4.5591
X7.3189Y-5.2283
X7.3189Y-5.8976
X7.3189Y-6.5669
X7.4961Y-6.502
X7.6024Y-4.1496
X7.6024Y-4.8189
X7.6024Y-5.4882
X7.6024Y-6.1575
X7.6024Y-6.8268
X7.7657Y-4.3602
X7.7657Y-5.0295
X7.7657Y-5.6988
X7.7657Y-6.3681
X7.7657Y-7.0374
X7.811Y-4.0512
X7.811Y-4.7205
X7.811Y-5.3898
X7.811Y-6.0591
X7.811Y-6.7283
X8.0276Y-3.7913
X8.0276Y-4.4606
X8.0276Y-5.1299
X8.0276Y-5.7992
X8.0276Y-6.4685
X8.311Y-4.0512
X8.311Y-4.7205
X8.311Y-5.3898
X8.311Y-6.0591
X8.311Y-6.7283
X8.4449Y-4.3209
X8.4449Y-4.9902
X8.4449Y-5.6594
X8.4449Y-6.3287
X8.4449Y-6.998
X8.5197Y-4.1496
X8.5197Y-4.8189
X8.5197Y-5.4882
X8.5197Y-6.1575
X8.5197Y-6.8268
X8.5472Y-6.5059
X8.7362Y-3.8898
X8.7362Y-4.5591
X8.7362Y-5.2283
X8.7362Y-5.8976
X8.7362Y-6.5669
X9.0197Y-4.1496
X9.0197Y-4.8189
X9.0197Y-5.4882
X9.0197Y-6.1575
X9.0197Y-6.8268
X9.1634Y-4.4193
X9.1634Y-5.0886
X9.1634Y-5.7579
X9.1634Y-6.4272
X9.1641Y-7.1351
X9.2283Y-4.248
X9.2283Y-4.9173
X9.2283Y-5.5866
X9.2283Y-6.2559
X9.3051Y-6.6299
X9.3309Y-6.949
X9.4449Y-3.9882
X9.4449Y-4.6575
X9.4449Y-5.3268
X9.4449Y-5.9961
X9.6073Y-6.7541
X9.7283Y-4.248
X9.7283Y-4.9173
X9.7283Y-5.5866
X9.7283Y-6.2559
X9.8031Y-5.1024
X9.8139Y-7.0784
X9.8189Y-6.5787
X9.8258Y-5.7707
X9.8406Y-7.2697
X9.8504Y-4.4941
X9.9508Y-6.1713
X9.9606Y-6.1319
X9.9606Y-6.437
X9.9987Y-7.1317
X10.0118Y-5.2205
X10.1155Y-7.4492
X10.187Y-5.4528
X10.2165Y-5.7362
X10.2504Y-5.4085
X10.2756Y-5.5512
X10.315Y-5.374
X10.315Y-5.5906
X10.3655Y-7.0161
X10.4094Y-5.0472
X10.4134Y-6.2205
X10.4488Y-5.1654
X10.4528Y-6.2598
X10.5039Y-5.4016
X10.5118Y-3.9567
X10.5305Y-7.1742
X10.5472Y-4.9213
X10.5472Y-5.0118
X10.5472Y-5.1102
X10.5512Y-4.6181
X10.5512Y-4.7244
X10.5512Y-4.811
X10.6402Y-5.2362
X10.6457Y-5.5394
X10.6594Y-5.6004
X10.6988Y-5.7992
T2
X10.2165Y-4.0394
X10.2165Y-4.1394
X10.2165Y-4.2394
X10.2165Y-4.3394
X10.4843Y-4.0394
X10.4843Y-4.1394
X10.4843Y-4.2394
X10.4843Y-4.3394
T4
X10.0354Y-5.6732
X10.0354Y-5.752
T5
X10.0504Y-4.0394
X10.0504Y-4.1394
X10.0504Y-4.2394
X10.0504Y-4.3394
X10.0504Y-4.4394
X10.0504Y-4.5394
X10.0504Y-4.6394
X10.0504Y-4.7394
X10.0504Y-4.8394
X10.0504Y-4.9394
X10.0504Y-5.0394
X10.0504Y-5.1394
X10.1476Y-6.3957
X10.1504Y-5.2717
X10.2504Y-5.2717
X10.3504Y-5.2717
X10.4504Y-5.2717
X10.5504Y-5.2717
X10.5531Y-6.3957
X10.6504Y-4.0394
X10.6504Y-4.1394
X10.6504Y-4.2394
X10.6504Y-4.3394
X10.6504Y-4.4394
X10.6504Y-4.5394
X10.6504Y-4.6394
X10.6504Y-4.7394
X10.6504Y-4.8394
X10.6504Y-4.9394
X10.6504Y-5.0394
X10.6504Y-5.1394
T6
X10.1476Y-6.25
X10.1476Y-6.5059
X10.5531Y-6.25
X10.5531Y-6.5059
T8
X10.0354Y-6.0276
X10.6654Y-6.0276
T3
G00X10.0551Y-6.2697
M15
G01X10.0551Y-6.2894
M16
G05
G00X10.0551Y-6.3681
M15
G01X10.0551Y-6.3878
M16
G05
G00X10.0551Y-6.4665
M15
G01X10.0551Y-6.4862
M16
G05
T7
G00X10.3661Y-6.1575
M15
G01X10.3346Y-6.1575
M16
G05
G00X10.3661Y-6.5984
M15
G01X10.3346Y-6.5984
M16
G05
M30
