M48
; DRILL file {KiCad 9.0.3} date 2025-08-05T02:35:51-0600
; FORMAT={-:-/ absolute / inch / decimal}
; #@! TF.CreationDate,2025-08-05T02:35:51-06:00
; #@! TF.GenerationSoftware,Kicad,Pcbnew,9.0.3
; #@! TF.FileFunction,NonPlated,1,2,NPTH
FMAT,2
INCH
; #@! TA.AperFunction,NonPlated,NPTH,ComponentDrill
T1C0.0354
; #@! TA.AperFunction,NonPlated,NPTH,ComponentDrill
T2C0.0748
; #@! TA.AperFunction,NonPlated,NPTH,ComponentDrill
T3C0.1181
; #@! TA.AperFunction,NonPlated,NPTH,ComponentDrill
T4C0.1339
; #@! TA.AperFunction,NonPlated,NPTH,ComponentDrill
T5C0.1614
%
G90
G05
T1
X10.7372Y-5.3248
X10.7372Y-5.4429
T2
X5.689Y-4.4094
X5.689Y-5.0787
X5.689Y-5.748
X5.689Y-6.4173
X6.122Y-4.4094
X6.122Y-5.0787
X6.122Y-5.748
X6.122Y-6.4173
X6.3976Y-4.4094
X6.3976Y-5.0787
X6.3976Y-5.748
X6.3976Y-6.4173
X6.8307Y-4.4094
X6.8307Y-5.0787
X6.8307Y-5.748
X6.8307Y-6.4173
X7.1063Y-4.2126
X7.1063Y-4.8819
X7.1063Y-5.5512
X7.1063Y-6.2205
X7.1063Y-6.8898
X7.5394Y-4.2126
X7.5394Y-4.8819
X7.5394Y-5.5512
X7.5394Y-6.2205
X7.5394Y-6.8898
X7.815Y-4.1142
X7.815Y-4.7835
X7.815Y-5.4528
X7.815Y-6.122
X7.815Y-6.7913
X8.248Y-4.1142
X8.248Y-4.7835
X8.248Y-5.4528
X8.248Y-6.122
X8.248Y-6.7913
X8.5236Y-4.2126
X8.5236Y-4.8819
X8.5236Y-5.5512
X8.5236Y-6.2205
X8.5236Y-6.8898
X8.9567Y-4.2126
X8.9567Y-4.8819
X8.9567Y-5.5512
X8.9567Y-6.2205
X8.9567Y-6.8898
X9.2323Y-4.311
X9.2323Y-4.9803
X9.2323Y-5.6496
X9.2323Y-6.3189
X9.3184Y-7.0109
X9.6654Y-4.311
X9.6654Y-4.9803
X9.6654Y-5.6496
X9.6654Y-6.3189
X9.7367Y-7.123
X10.172Y-7.4772
X10.3885Y-7.1022
T3
X5.7087Y-4.2618
X5.7087Y-4.9311
X5.7087Y-5.6004
X5.7087Y-6.2697
X5.9055Y-4.1752
X5.9055Y-4.8445
X5.9055Y-5.5138
X5.9055Y-6.1831
X6.1024Y-4.2618
X6.1024Y-4.9311
X6.1024Y-5.6004
X6.1024Y-6.2697
X6.4173Y-4.2618
X6.4173Y-4.9311
X6.4173Y-5.6004
X6.4173Y-6.2697
X6.6142Y-4.1752
X6.6142Y-4.8445
X6.6142Y-5.5138
X6.6142Y-6.1831
X6.811Y-4.2618
X6.811Y-4.9311
X6.811Y-5.6004
X6.811Y-6.2697
X7.126Y-4.065
X7.126Y-4.7343
X7.126Y-5.4035
X7.126Y-6.0728
X7.126Y-6.7421
X7.3228Y-3.9783
X7.3228Y-4.6476
X7.3228Y-5.3169
X7.3228Y-5.9862
X7.3228Y-6.6555
X7.5197Y-4.065
X7.5197Y-4.7343
X7.5197Y-5.4035
X7.5197Y-6.0728
X7.5197Y-6.7421
X7.8346Y-3.9665
X7.8346Y-4.6358
X7.8346Y-5.3051
X7.8346Y-5.9744
X7.8346Y-6.6437
X8.0315Y-3.8799
X8.0315Y-4.5492
X8.0315Y-5.2185
X8.0315Y-5.8878
X8.0315Y-6.5571
X8.2283Y-3.9665
X8.2283Y-4.6358
X8.2283Y-5.3051
X8.2283Y-5.9744
X8.2283Y-6.6437
X8.5433Y-4.065
X8.5433Y-4.7343
X8.5433Y-5.4035
X8.5433Y-6.0728
X8.5433Y-6.7421
X8.7402Y-3.9783
X8.7402Y-4.6476
X8.7402Y-5.3169
X8.7402Y-5.9862
X8.7402Y-6.6555
X8.937Y-4.065
X8.937Y-4.7343
X8.937Y-5.4035
X8.937Y-6.0728
X8.937Y-6.7421
X9.252Y-4.1634
X9.252Y-4.8327
X9.252Y-5.502
X9.252Y-6.1713
X9.3756Y-6.8734
X9.4488Y-4.0768
X9.4488Y-4.7461
X9.4488Y-5.4154
X9.4488Y-6.0846
X9.5882Y-6.8407
X9.6457Y-4.1634
X9.6457Y-4.8327
X9.6457Y-5.502
X9.6457Y-6.1713
X9.7559Y-6.9753
X10.054Y-7.3864
X10.0774Y-7.1726
X10.2508Y-7.0454
T4
X5.9055Y-4.4094
X5.9055Y-5.0787
X5.9055Y-5.748
X5.9055Y-6.4173
X6.6142Y-4.4094
X6.6142Y-5.0787
X6.6142Y-5.748
X6.6142Y-6.4173
X7.3228Y-4.2126
X7.3228Y-4.8819
X7.3228Y-5.5512
X7.3228Y-6.2205
X7.3228Y-6.8898
X8.0315Y-4.1142
X8.0315Y-4.7835
X8.0315Y-5.4528
X8.0315Y-6.122
X8.0315Y-6.7913
X8.7402Y-4.2126
X8.7402Y-4.8819
X8.7402Y-5.5512
X8.7402Y-6.2205
X8.7402Y-6.8898
X9.4488Y-4.311
X9.4488Y-4.9803
X9.4488Y-5.6496
X9.4488Y-6.3189
X9.5276Y-7.0669
X10.2803Y-7.2897
T5
X6.2598Y-4.7441
X6.2598Y-6.0827
X9.0768Y-4.5472
X9.0768Y-5.8858
X10.0084Y-6.8697
M30
